<svg xmlns="http://www.w3.org/2000/svg" width="39.599" height="34.419" viewBox="0 0 39.599 34.419">
  <path id="Path_24" data-name="Path 24" d="M9,18.023V43.837a.863.863,0,0,0,.86.86H24.136l1.471,1.471a.852.852,0,0,0,.611.25h5.163a.889.889,0,0,0,.611-.25L33.463,44.7H47.738a.863.863,0,0,0,.86-.86V18.023a.863.863,0,0,0-.86-.86H45.157V15.442a.872.872,0,0,0-.585-.817L39.994,13.1V12.86a.863.863,0,0,0-.86-.86,11.2,11.2,0,0,0-10.326,6.884A11.2,11.2,0,0,0,18.482,12a.863.863,0,0,0-.86.86V13.1l-4.578,1.523a.861.861,0,0,0-.585.817v1.721H9.878a.863.863,0,0,0-.86.86ZM44.073,39.509a.883.883,0,0,0,.74-.163.865.865,0,0,0,.327-.68V18.884H46.86V42.977H33.093a.889.889,0,0,0-.611.25L31.011,44.7h-.706c4.844-7.254,13.38-5.283,13.759-5.189ZM29.651,23.186a9.482,9.482,0,0,1,8.6-9.431V34.4a11.19,11.19,0,0,0-8.6,5.206V23.186ZM14.163,16.061,17.6,14.917V35.233a.863.863,0,0,0,.86.86,9.485,9.485,0,0,1,8.682,5.7c-4.457-4.664-10.549-4.449-12.984-4.13Z" transform="translate(-9 -12)" fill="#f6f6f6"/>
</svg>
