<svg xmlns="http://www.w3.org/2000/svg" xmlns:xlink="http://www.w3.org/1999/xlink" width="73.028" height="52.692" viewBox="0 0 73.028 52.692">
  <defs>
    <filter id="Rectangle_52" x="0" y="0" width="73.028" height="52.692" filterUnits="userSpaceOnUse">
      <feOffset dy="3" input="SourceAlpha"/>
      <feGaussianBlur stdDeviation="3" result="blur"/>
      <feFlood flood-opacity="0.161"/>
      <feComposite operator="in" in2="blur"/>
      <feComposite in="SourceGraphic"/>
    </filter>
  </defs>
  <g id="Group_16114" data-name="Group 16114" transform="translate(9 6)">
    <g transform="matrix(1, 0, 0, 1, -9, -6)" filter="url(#Rectangle_52)">
      <rect id="Rectangle_52-2" data-name="Rectangle 52" width="55.028" height="34.692" transform="translate(9 6)" fill="#fff"/>
    </g>
    <rect id="Rectangle_53" data-name="Rectangle 53" width="25.544" height="2.393" transform="translate(4.785 5.981)" fill="#d7d8da"/>
    <rect id="Rectangle_54" data-name="Rectangle 54" width="25.544" height="2.393" transform="translate(4.785 10.767)" fill="#d7d8da"/>
    <rect id="Rectangle_55" data-name="Rectangle 55" width="22.729" height="2.393" transform="translate(4.785 16.748)" fill="#d7d8da" opacity="0.5"/>
    <rect id="Rectangle_56" data-name="Rectangle 56" width="22.729" height="2.393" transform="translate(4.785 21.533)" fill="#d7d8da" opacity="0.5"/>
    <rect id="Rectangle_57" data-name="Rectangle 57" width="22.729" height="2.393" transform="translate(4.785 26.318)" fill="#d7d8da" opacity="0.5"/>
    <path id="Path_64" data-name="Path 64" d="M203.115,199.037l2.433-4.213,4.211,2.433-3.115-11.627L200,187.41Z" transform="translate(-158.131 -167.859)" fill="#f54337"/>
    <path id="Path_65" data-name="Path 65" d="M161.244,199.037l-2.433-4.213-4.211,2.433,3.115-11.627,6.644,1.78Z" transform="translate(-122.49 -167.859)" fill="#f54337"/>
    <circle id="Ellipse_9" data-name="Ellipse 9" cx="9" cy="9" r="9" transform="translate(32.869 4.71)" fill="#ffeb3c"/>
  </g>
</svg>
