<svg id="Group_15888" data-name="Group 15888" xmlns="http://www.w3.org/2000/svg" width="31.208" height="31.208" viewBox="0 0 31.208 31.208">
  <path id="Path_27" data-name="Path 27" d="M7.7,21.875a.326.326,0,0,0-.313-.415H7.152a1.3,1.3,0,0,1-1.3-1.3V4.551a1.3,1.3,0,0,1,1.3-1.3h18.2a1.3,1.3,0,0,1,1.3,1.3v13.89a.322.322,0,0,0,.252.316,8.045,8.045,0,0,1,3.749,2.022.325.325,0,0,0,.55-.234V3.251A3.251,3.251,0,0,0,27.957,0H3.251A3.251,3.251,0,0,0,0,3.251v18.2a3.251,3.251,0,0,0,3.251,3.251h4.1a.325.325,0,0,0,.315-.406A4.681,4.681,0,0,1,7.7,21.875Z" transform="translate(0 0)" fill="#f8f8f8"/>
  <path id="Path_28" data-name="Path 28" d="M27.73,28.955a.975.975,0,0,0,.975-.975v-3.9A6.184,6.184,0,0,0,22.529,17.9h-2.6a.325.325,0,0,1-.325-.325V10.426a2.926,2.926,0,1,0-5.851,0v9.18a.325.325,0,0,1-.575.208l-.752-.91a2.926,2.926,0,1,0-4.5,3.741l4.95,5.954a.979.979,0,0,0,.75.351Z" transform="translate(2.177 2.252)" fill="#f8f8f8"/>
</svg>
