<svg xmlns="http://www.w3.org/2000/svg" width="36.605" height="36.326" viewBox="0 0 36.605 36.326">
  <g id="Group_15909" data-name="Group 15909" transform="translate(-6.711 -6.822)">
    <path id="Path_37" data-name="Path 37" d="M28.371,28.785a2.867,2.867,0,0,0,5.422,1.307l.008.007L39.05,20.63l-9.214,5.65.009.009A2.865,2.865,0,0,0,28.371,28.785Z" transform="translate(-5.958 -3.798)" fill="#fff"/>
    <path id="Path_38" data-name="Path 38" d="M44.1,11.287A18.271,18.271,0,0,0,33,6.822v4.369a12.388,12.388,0,0,1,7.9,3.178Z" transform="translate(-7.231 0)" fill="#fff"/>
    <path id="Path_39" data-name="Path 39" d="M49.871,25.882h4.364A17.578,17.578,0,0,0,49.6,15.03L46.512,18.1A13.945,13.945,0,0,1,49.871,25.882Z" transform="translate(-10.948 -2.258)" fill="#fff"/>
    <path id="Path_40" data-name="Path 40" d="M38.944,25.8a13.869,13.869,0,0,1-13.8,13,14.047,14.047,0,0,1-14.079-13.83A14.122,14.122,0,0,1,23.594,11.192V6.823A18.1,18.1,0,0,0,6.711,24.987,18.285,18.285,0,0,0,25.025,43.148,18.5,18.5,0,0,0,43.316,25.8Z" transform="translate(0 0)" fill="#fff"/>
  </g>
</svg>
