<svg xmlns="http://www.w3.org/2000/svg" xmlns:xlink="http://www.w3.org/1999/xlink" width="103.797" height="49.752" viewBox="0 0 103.797 49.752">
  <defs>
    <linearGradient id="linear-gradient" x1="0.5" x2="0.5" y2="1" gradientUnits="objectBoundingBox">
      <stop offset="0" stop-color="#9f0d91"/>
      <stop offset="1" stop-color="#20005c"/>
    </linearGradient>
  </defs>
  <path id="SVGID" d="M442.771,544.482a13,13,0,0,0-13.335,12.865c-.12,6.271-.13,17.65.006,23.92a12.96,12.96,0,0,0,13.116,12.765l19.426.138c5.547.47,8.952-1.988,11.79-6.127.464-.677.915-1.366,1.411-2.02,3.334-4.4,8.873-4.33,12.229.122,1.236,1.639,2.457,3.3,3.8,4.844a8.35,8.35,0,0,0,6.987,3.122c4.693-.137,9.39-.114,14.088-.091,2.5.012,5,.025,7.507.013a13.009,13.009,0,0,0,13.293-13.224c.072-5.964.063-17.031,0-22.995a13.037,13.037,0,0,0-13.5-13.334q-19.128-.014-38.256,0-11.374,0-22.748,0-7.909,0-15.817.007" transform="translate(-429.343 -544.475)" fill="url(#linear-gradient)"/>
</svg>
