<svg width="21" height="16" viewBox="0 0 21 16" fill="none" xmlns="http://www.w3.org/2000/svg">
<path d="M2.5625 0H13.1875C13.7734 0 14.3594 0.390625 14.5938 0.9375C14.8281 1.52344 14.75 2.1875 14.3203 2.61719L10.375 7.03125V13.75C10.375 14.2578 10.1016 14.6875 9.67188 14.8828C9.24219 15.0781 8.73438 15.0391 8.34375 14.7656L5.84375 12.8906C5.53125 12.6562 5.375 12.3047 5.375 11.875V7.03125L1.39062 2.61719C0.960938 2.14844 0.882812 1.52344 1.11719 0.9375C1.35156 0.390625 1.9375 0 2.5625 0ZM14.75 12.5H19.75C20.4141 12.5 21 13.0859 21 13.75C21 14.4531 20.4141 15 19.75 15H14.75C14.0469 15 13.5 14.4531 13.5 13.75C13.5 13.0859 14.0469 12.5 14.75 12.5ZM13.5 7.5C13.5 6.83594 14.0469 6.25 14.75 6.25H19.75C20.4141 6.25 21 6.83594 21 7.5C21 8.20312 20.4141 8.75 19.75 8.75H14.75C14.0469 8.75 13.5 8.20312 13.5 7.5ZM17.25 0H19.75C20.4141 0 21 0.585938 21 1.25C21 1.95312 20.4141 2.5 19.75 2.5H17.25C16.5469 2.5 16 1.95312 16 1.25C16 0.585938 16.5469 0 17.25 0Z" fill="white"/>
</svg>
